HIERARCHY
ROOT joint_Root
{
	OFFSET 0.0 0.0 0.0
	CHANNELS 6 Xposition Yposition Zposition Zrotation Xrotation Yrotation 
	JOINT Hips
	{
		OFFSET -17.1583 93.1646 452.98
		CHANNELS 6 Xposition Yposition Zposition Zrotation Xrotation Yrotation 
		JOINT Spine
		{
			OFFSET 15.7357 0.0 0.0
			CHANNELS 6 Xposition Yposition Zposition Zrotation Xrotation Yrotation 
			JOINT Chest
			{
				OFFSET 8.98455 -0.406207 0.0
				CHANNELS 6 Xposition Yposition Zposition Zrotation Xrotation Yrotation 
				JOINT Neck
				{
					OFFSET 16.3773 0.0 0.0
					CHANNELS 6 Xposition Yposition Zposition Zrotation Xrotation Yrotation 
					JOINT Head
					{
						OFFSET 6.45672 0.0 0.0
						CHANNELS 6 Xposition Yposition Zposition Zrotation Xrotation Yrotation 
						End Site
						{
							OFFSET 0.0 0.0 0.0
						}
					}
				}
				JOINT Shoulder_L
				{
					OFFSET 12.9942 -0.242716 4.98039
					CHANNELS 6 Xposition Yposition Zposition Zrotation Xrotation Yrotation 
					JOINT UpperArm_L
					{
						OFFSET 5.34809 0.0 0.0
						CHANNELS 6 Xposition Yposition Zposition Zrotation Xrotation Yrotation 
						JOINT LowerArm_L
						{
							OFFSET 24.3286 1.87007e-05 0.0
							CHANNELS 6 Xposition Yposition Zposition Zrotation Xrotation Yrotation 
							JOINT Hand_L
							{
								OFFSET 22.2916 0.0 0.0
								CHANNELS 6 Xposition Yposition Zposition Zrotation Xrotation Yrotation 
								End Site
								{
									OFFSET 0.0 0.0 0.0
								}
							}
						}
					}
				}
				JOINT Shoulder_R
				{
					OFFSET 12.9945 -0.242716 -4.98039
					CHANNELS 6 Xposition Yposition Zposition Zrotation Xrotation Yrotation 
					JOINT UpperArm_R
					{
						OFFSET -5.34813 0.0 0.0
						CHANNELS 6 Xposition Yposition Zposition Zrotation Xrotation Yrotation 
						JOINT LowerArm_R
						{
							OFFSET -24.3289 0.000322201 0.0
							CHANNELS 6 Xposition Yposition Zposition Zrotation Xrotation Yrotation 
							JOINT Hand_R
							{
								OFFSET -22.2915 -0.000108084 0.0
								CHANNELS 6 Xposition Yposition Zposition Zrotation Xrotation Yrotation 
								End Site
								{
									OFFSET 0.0 0.0 0.0
								}
							}
						}
					}
				}
			}
		}
		JOINT UpperLeg_L
		{
			OFFSET -2.19248 -6.46944 0.0
			CHANNELS 6 Xposition Yposition Zposition Zrotation Xrotation Yrotation 
			JOINT LowerLeg_L
			{
				OFFSET 39.0811 0.0 -1.23785e-05
				CHANNELS 6 Xposition Yposition Zposition Zrotation Xrotation Yrotation 
				JOINT Foot_L
				{
					OFFSET 40.9854 0.0 -1.26872e-05
					CHANNELS 6 Xposition Yposition Zposition Zrotation Xrotation Yrotation 
					JOINT Toes_L
					{
						OFFSET 11.7543 0.0 0.0
						CHANNELS 6 Xposition Yposition Zposition Zrotation Xrotation Yrotation 
						End Site
						{
							OFFSET 0.0 0.0 0.0
						}
					}
				}
			}
		}
		JOINT UpperLeg_R
		{
			OFFSET -2.19251 6.46944 0.0
			CHANNELS 6 Xposition Yposition Zposition Zrotation Xrotation Yrotation 
			JOINT LowerLeg_R
			{
				OFFSET -39.0811 -0.00228153 -0.0401928
				CHANNELS 6 Xposition Yposition Zposition Zrotation Xrotation Yrotation 
				JOINT Foot_R
				{
					OFFSET -40.9854 0.0 0.0
					CHANNELS 6 Xposition Yposition Zposition Zrotation Xrotation Yrotation 
					JOINT Toes_R
					{
						OFFSET -11.7543 0.0 0.0
						CHANNELS 6 Xposition Yposition Zposition Zrotation Xrotation Yrotation 
						End Site
						{
							OFFSET 0.0 0.0 0.0
						}
					}
				}
			}
		}
	}
}
MOTION
Frames:	7
Frame Time:	0.0333333
0.000000 0.000000 0.000000 0.000000 0.000000 -0.000000 -1.731380 92.533700 -1.615110 85.625300 0.100440 2.098650 15.735700 0.000005 -0.000001 84.677300 87.308100 -82.153300 8.984550 -0.406207 -0.000000 -2.384630 -0.722705 5.032590 16.377300 -0.000001 -0.000001 5.529310 4.276060 -1.238740 6.456720 -0.000001 -0.000000 2.184770 5.629360 -5.662220 12.994200 -0.242716 4.980390 -93.202300 9.475980 -71.230600 5.348090 -0.000007 -0.000001 -73.207400 20.022400 1.364730 24.328600 0.000019 0.000005 12.929800 24.788100 -28.703900 22.291600 -0.000001 0.000005 -2.553930 4.972260 7.903850 12.994500 -0.242716 -4.980390 88.199900 5.682480 -72.390500 -5.348130 -0.000001 -0.000004 -68.076200 15.569000 -3.099710 -24.328900 0.000322 -0.000009 0.089201 0.345339 -14.650300 -22.291500 -0.000108 -0.000004 5.901260 5.299370 0.090647 -2.192480 -6.469440 -0.000000 -174.710000 0.005986 -4.996710 39.081100 -0.000007 -0.000012 0.297449 -0.648076 24.654500 40.985400 -0.000006 -0.000013 1.614610 6.537360 -73.260900 11.754300 -0.000000 0.000003 0.000559 0.157606 -10.184800 -2.192510 6.469440 -0.000001 -172.789000 5.999120 -178.366000 -39.081100 -0.002282 -0.040193 0.087459 -0.339770 13.906900 -40.985400 0.000008 0.000006 3.305880 1.432830 -69.767600 -11.754300 -0.000006 -0.000006 -0.011092 0.279292 -5.224190
0.000000 0.000000 0.000000 0.000000 0.000000 -0.000000 -1.719020 92.534900 -1.653050 85.635700 0.154741 2.193720 15.735700 0.000005 -0.000001 84.938600 87.277900 -82.425700 8.984550 -0.406207 -0.000000 -2.322890 -0.701251 5.011130 16.377300 -0.000001 -0.000001 5.465870 4.156880 -0.988554 6.456720 -0.000001 -0.000000 1.718500 5.553120 -5.268370 12.994200 -0.242716 4.980390 -93.230400 9.551140 -71.214100 5.348090 -0.000007 -0.000001 -72.731400 18.339400 0.870879 24.328600 0.000019 0.000005 12.425500 24.271600 -28.191300 22.291600 -0.000001 0.000005 -2.938740 4.959630 8.166810 12.994500 -0.242716 -4.980390 88.174400 5.758220 -72.375600 -5.348130 -0.000001 -0.000004 -67.009600 13.675300 -3.629510 -24.328900 0.000322 -0.000009 0.196030 0.788176 -14.043800 -22.291500 -0.000108 -0.000004 5.410960 5.292010 0.295426 -2.192480 -6.469440 -0.000000 -174.729000 0.042535 -4.937010 39.081100 -0.000007 -0.000012 0.296319 -0.645303 24.664900 40.985400 -0.000006 -0.000013 1.624640 6.548950 -73.252900 11.754300 -0.000000 0.000003 0.000609 0.156651 -10.223600 -2.192510 6.469440 -0.000001 -172.793000 5.933970 -178.300000 -39.081100 -0.002282 -0.040193 0.087978 -0.341684 13.913900 -40.985400 0.000008 0.000006 3.358170 1.290190 -69.770800 -11.754300 -0.000006 -0.000006 -0.011063 0.279084 -5.232690
0.000000 0.000000 0.000000 0.000000 0.000000 -0.000000 -1.722720 92.542800 -1.703710 85.598700 0.271779 2.168260 15.735700 0.000005 -0.000001 84.766200 87.266600 -82.246100 8.984550 -0.406207 -0.000000 -2.301240 -0.719787 5.025480 16.377300 -0.000001 -0.000001 5.240460 4.072000 -0.738590 6.456720 -0.000001 -0.000000 1.434080 5.520060 -4.817840 12.994200 -0.242716 4.980390 -93.273600 9.679010 -71.211800 5.348090 -0.000007 -0.000001 -71.953400 16.109500 0.081176 24.328600 0.000019 0.000005 11.457900 23.065200 -27.354300 22.291600 -0.000001 0.000005 -3.954050 4.954340 8.275020 12.994500 -0.242716 -4.980390 88.153500 5.831660 -72.395900 -5.348130 -0.000001 -0.000004 -65.770900 11.003800 -4.237520 -24.328900 0.000322 -0.000009 0.428850 1.758150 -13.742200 -22.291500 -0.000108 -0.000004 4.632110 5.275260 0.757021 -2.192480 -6.469440 -0.000000 -174.689000 0.144618 -5.037220 39.081100 -0.000007 -0.000012 0.297136 -0.646592 24.681400 40.985400 -0.000006 -0.000013 1.624850 6.587310 -73.187400 11.754300 -0.000000 0.000003 0.000546 0.157871 -10.174100 -2.192510 6.469440 -0.000001 -172.753000 5.928300 -178.375000 -39.081100 -0.002282 -0.040193 0.084807 -0.328907 13.913000 -40.985400 0.000008 0.000006 3.147650 1.204790 -69.660300 -11.754300 -0.000006 -0.000006 -0.010812 0.277279 -5.306590
0.000000 0.000000 0.000000 0.000000 0.000000 -0.000000 -1.705760 92.548300 -1.747540 85.627600 0.374390 2.261530 15.735700 0.000005 -0.000001 84.830400 87.223300 -82.319500 8.984550 -0.406207 -0.000000 -2.214510 -0.718798 5.007340 16.377300 -0.000001 -0.000001 5.051470 3.928480 -0.450860 6.456720 -0.000001 -0.000000 1.089160 5.445190 -4.344790 12.994200 -0.242716 4.980390 -93.322300 9.808340 -71.182600 5.348090 -0.000007 -0.000001 -71.124200 12.603800 -0.821571 24.328600 0.000019 0.000005 9.705620 20.334600 -26.204400 22.291600 -0.000001 0.000005 -4.602880 4.949830 8.368360 12.994500 -0.242716 -4.980390 88.113900 5.945000 -72.362500 -5.348130 -0.000001 -0.000004 -64.258600 7.873020 -4.769460 -24.328900 0.000322 -0.000009 0.688178 2.753040 -14.059200 -22.291500 -0.000108 -0.000004 3.831220 5.252630 1.365420 -2.192480 -6.469440 -0.000000 -174.734000 0.211268 -4.985760 39.081100 -0.000007 -0.000012 0.295323 -0.643043 24.667900 40.985400 -0.000006 -0.000013 1.633310 6.584820 -73.172600 11.754300 -0.000000 0.000003 0.000555 0.157691 -10.181400 -2.192510 6.469440 -0.000001 -172.783000 5.922220 -178.306000 -39.081100 -0.002282 -0.040193 0.085580 -0.332300 13.901900 -40.985400 0.000008 0.000006 3.232010 1.090710 -69.694900 -11.754300 -0.000006 -0.000006 -0.011259 0.280482 -5.175460
0.000000 0.000000 0.000000 0.000000 0.000000 -0.000000 -1.700230 92.551100 -1.814710 85.620200 0.514809 2.250200 15.735700 0.000005 -0.000001 84.910900 87.206700 -82.399000 8.984550 -0.406207 -0.000000 -2.180930 -0.713309 5.009710 16.377300 -0.000001 -0.000001 4.881200 3.747220 -0.122937 6.456720 -0.000001 -0.000000 0.706913 5.335240 -3.775520 12.994200 -0.242716 4.980390 -93.326900 9.806890 -71.156100 5.348090 -0.000007 -0.000001 -70.515100 7.655880 -1.914460 24.328600 0.000019 0.000005 7.323020 15.925400 -25.097100 22.291600 -0.000001 0.000005 -4.284370 4.919130 8.991430 12.994500 -0.242716 -4.980390 88.080300 6.039790 -72.331000 -5.348130 -0.000001 -0.000004 -62.657900 3.896540 -5.115370 -24.328900 0.000322 -0.000009 1.013260 3.721010 -15.255900 -22.291500 -0.000108 -0.000004 3.065630 5.222150 2.159490 -2.192480 -6.469440 -0.000000 -174.725000 0.327330 -5.098930 39.081100 -0.000007 -0.000012 0.294834 -0.640780 24.708600 40.985400 -0.000006 -0.000013 1.636250 6.626620 -73.110800 11.754300 -0.000000 0.000003 0.000446 0.159740 -10.098200 -2.192510 6.469440 -0.000001 -172.769000 6.000980 -178.408000 -39.081100 -0.002282 -0.040193 0.085763 -0.331725 13.954900 -40.985400 0.000008 0.000006 3.160730 1.036750 -69.622300 -11.754300 -0.000006 -0.000006 -0.010712 0.276553 -5.336290
0.000000 0.000000 0.000000 0.000000 0.000000 -0.000000 -1.694270 92.555300 -1.869710 85.610400 0.685999 2.334080 15.735700 0.000005 -0.000001 84.693800 87.154000 -82.168600 8.984550 -0.406207 -0.000000 -2.077080 -0.743018 5.036240 16.377300 -0.000001 -0.000001 4.718680 3.558330 0.299677 6.456720 -0.000001 -0.000000 0.336241 5.194350 -3.199390 12.994200 -0.242716 4.980390 -93.331200 9.820670 -71.157500 5.348090 -0.000007 -0.000001 -70.142600 1.140380 -2.815460 24.328600 0.000019 0.000005 5.747410 12.118100 -25.617900 22.291600 -0.000001 0.000005 -2.868480 4.872250 9.921450 12.994500 -0.242716 -4.980390 88.109100 5.951670 -72.338400 -5.348130 -0.000001 -0.000004 -61.233300 -0.649021 -5.203170 -24.328900 0.000322 -0.000009 1.282730 4.076900 -17.495100 -22.291500 -0.000108 -0.000004 3.323230 5.189530 2.978460 -2.192480 -6.469440 -0.000000 -174.721000 0.454510 -5.088500 39.081100 -0.000007 -0.000012 0.293914 -0.637950 24.736900 40.985400 -0.000006 -0.000013 1.641790 6.652830 -73.126000 11.754300 -0.000000 0.000003 0.000462 0.159450 -10.110000 -2.192510 6.469440 -0.000001 -172.768000 6.072130 -178.371000 -39.081100 -0.002282 -0.040193 0.085537 -0.330517 13.967100 -40.985400 0.000008 0.000006 3.142540 0.986272 -69.665300 -11.754300 -0.000006 -0.000006 -0.011401 0.281493 -5.134090
0.000000 0.000000 0.000000 0.000000 0.000000 -0.000000 -1.714470 92.550600 -1.956960 85.556500 0.884345 2.348000 15.735700 0.000005 -0.000001 84.069600 87.123700 -81.537300 8.984550 -0.406207 -0.000000 -2.021410 -0.810350 5.049690 16.377300 -0.000001 -0.000001 4.573650 3.322490 0.814050 6.456720 -0.000001 -0.000000 0.017890 5.075010 -2.436740 12.994200 -0.242716 4.980390 -93.323200 9.775340 -71.119600 5.348090 -0.000007 -0.000001 -69.796600 -5.031900 -3.568950 24.328600 0.000019 0.000005 5.043350 9.534780 -28.052000 22.291600 -0.000001 0.000005 0.020399 4.810470 11.112600 12.994500 -0.242716 -4.980390 88.169700 5.780550 -72.396600 -5.348130 -0.000001 -0.000004 -60.147700 -5.988350 -5.012940 -24.328900 0.000322 -0.000009 1.590980 4.176900 -20.886900 -22.291500 -0.000108 -0.000004 4.422700 5.163110 3.625360 -2.192480 -6.469440 -0.000000 -174.652000 0.617398 -5.254400 39.081100 -0.000007 -0.000012 0.296302 -0.639101 24.874100 40.985400 -0.000006 -0.000013 1.638380 6.721090 -73.083300 11.754300 -0.000000 0.000003 0.000505 0.158640 -10.142800 -2.192510 6.469440 -0.000001 -172.672000 6.083060 -178.461000 -39.081100 -0.002282 -0.040193 0.085970 -0.330987 14.018700 -40.985400 0.000008 0.000006 3.113800 0.781524 -69.603200 -11.754300 -0.000006 -0.000006 -0.011082 0.279219 -5.227160
